<svg width="1180" height="320" viewBox="0 0 1180 320" fill="none" xmlns="http://www.w3.org/2000/svg" role="img" aria-labelledby="title desc">
  <title id="title">Pantheon logo</title>
  <desc id="desc">Pantheon wordmark with a temple kernel and connected agent nodes.</desc>
  <defs>
    <linearGradient id="kernel" x1="70" y1="36" x2="250" y2="284" gradientUnits="userSpaceOnUse">
      <stop stop-color="#F4D389"/>
      <stop offset="0.48" stop-color="#D6A84F"/>
      <stop offset="1" stop-color="#9E6F28"/>
    </linearGradient>
    <linearGradient id="signal" x1="100" y1="100" x2="220" y2="232" gradientUnits="userSpaceOnUse">
      <stop stop-color="#4FD1C5"/>
      <stop offset="1" stop-color="#2A8E86"/>
    </linearGradient>
  </defs>

  <rect width="1180" height="320" rx="48" fill="#11141D"/>
  <path d="M160 42L270 102H50L160 42Z" fill="url(#kernel)"/>
  <path d="M76 116H244" stroke="#F5E6C5" stroke-width="12" stroke-linecap="round"/>
  <path d="M80 248H240" stroke="#F5E6C5" stroke-width="12" stroke-linecap="round"/>
  <path d="M104 142V224" stroke="#D6A84F" stroke-width="16" stroke-linecap="round"/>
  <path d="M142 142V224" stroke="#D6A84F" stroke-width="16" stroke-linecap="round"/>
  <path d="M180 142V224" stroke="#D6A84F" stroke-width="16" stroke-linecap="round"/>
  <path d="M218 142V224" stroke="#D6A84F" stroke-width="16" stroke-linecap="round"/>

  <path d="M160 96V232" stroke="#F5E6C5" stroke-width="7" stroke-linecap="round"/>
  <path d="M122 184H198" stroke="#F5E6C5" stroke-width="7" stroke-linecap="round"/>
  <path d="M160 136L122 184L160 232L198 184L160 136Z" fill="#151923" stroke="url(#signal)" stroke-width="9" stroke-linejoin="round"/>
  <circle cx="160" cy="136" r="13" fill="#F5E6C5"/>
  <circle cx="122" cy="184" r="12" fill="#4FD1C5"/>
  <circle cx="198" cy="184" r="12" fill="#4FD1C5"/>
  <circle cx="160" cy="232" r="13" fill="#D4574A"/>
  <circle cx="160" cy="136" r="5" fill="#11141D"/>
  <circle cx="160" cy="232" r="5" fill="#11141D"/>

  <text x="332" y="154" fill="#F5E6C5" font-family="Inter, ui-sans-serif, system-ui, -apple-system, BlinkMacSystemFont, Segoe UI, sans-serif" font-size="84" font-weight="760" letter-spacing="0">Pantheon</text>
  <text x="336" y="210" fill="#9AA7B8" font-family="Inter, ui-sans-serif, system-ui, -apple-system, BlinkMacSystemFont, Segoe UI, sans-serif" font-size="28" font-weight="520" letter-spacing="0">Multi-Agent Virtual Office Kernel</text>
  <path d="M336 238H842" stroke="#293241" stroke-width="2"/>
  <text x="336" y="270" fill="#D6A84F" font-family="JetBrains Mono, SFMono-Regular, ui-monospace, Menlo, Consolas, monospace" font-size="22" font-weight="600" letter-spacing="0">root -> main -> multi-agents -> sub-agents</text>
</svg>
